<svg version="1.1" id="Layer_1" xmlns="http://www.w3.org/2000/svg" xmlns:xlink="http://www.w3.org/1999/xlink" x="0px" y="0px"
	 width="607.449px" height="145.934px" viewBox="0 0 607.449 145.934" enable-background="new 0 0 607.449 145.934"
	 xml:space="preserve">
<g>
	<path fill="#DD9D26" d="M17.899,21.11c1.447,3.795,11.96,30.543,13.421,34.336h2.332L17.899,15.08l-0.877,2.238L2.136,55.348h2.338
		C5.93,51.65,16.437,24.905,17.899,21.11"/>
	<polyline fill="#DD9D26" points="35.992,56.324 35.992,54.577 0,54.577 0,56.324 6.714,63.52 29.276,63.52 35.992,56.324 	"/>
	<path fill="#DD9D26" d="M101.652,21.11c1.459,3.795,11.96,30.543,13.428,34.336h2.328L101.652,15.08l-0.873,2.238L85.9,55.348
		h2.324C89.689,51.65,100.199,24.905,101.652,21.11"/>
	<polyline fill="#DD9D26" points="119.654,56.324 119.654,54.577 83.756,54.577 83.756,56.324 90.465,63.52 113.035,63.52 
		119.654,56.324 	"/>
	<path fill="#222F64" d="M23.152,86.772h74.806v-4.187H23.152V86.772 M60.504,0L60.504,0L60.504,0L17.313,8.462v3.99h28.212
		c3.791,2.438,5.639,6.521,5.639,6.804c0,0.491,0.293,2.444-0.686,3.897c-0.292,0.385-1.751,0.98-1.656,1.068
		c0,0.102,0.194,0.577,0.194,0.973c0,0.386,1.072,4.475,1.455,6.218c0.49,1.851,1.269,4.581,0.785,6.13
		c-0.487,1.561-1.364,2.924-1.271,3.309c0,0.393-0.188,0.973,0.689,2.336c0.875,1.361,2.327,2.918,2.724,3.701
		c0.474,0.772,0.576,1.158,0.964,1.74c0.396,0.488,1.365,1.354,1.653,2.244c0.3,0.973,0,1.939-0.478,2.432
		c-0.486,0.578-1.177,1.064-2.234,1.268c-1.07,0.188-1.754,0.088-1.854,0.386c-0.188,0.39-0.097,0.68,0.1,1.361
		c0.188,0.579,0.295,1.452,0.295,1.655c0.089,0.092,0.579,0.873,0.477,1.27c-0.088,0.383-0.188,1.646-1.063,2.044
		c-0.882,0.383-0.882,0.481-0.882,0.481s0.882,0.971,1.068,1.461c0.194,0.476,0.295,0.777,0,1.262
		c-0.385,0.479-1.854,1.168-2.141,1.941c-0.295,0.689-0.191,0.778,0.094,1.852c0.301,0.969,0.301,3.495-0.582,5.15
		c-0.684,1.363-1.742,2.047-3.012,2.437H31.597l-2.523,3.985h63.033l-2.523-3.985H74.887c-1.26-0.39-2.333-1.065-3.013-2.437
		c-0.878-1.552-0.878-4.084-0.579-5.15c0.293-0.971,0.383-1.07,0.095-1.852c-0.289-0.68-1.754-1.459-2.148-1.941
		c-0.379-0.481-0.19-0.786,0-1.262c0.195-0.49,1.074-1.461,1.074-1.461s0-0.102-0.879-0.481c-0.871-0.396-0.97-1.661-1.064-2.044
		c-0.092-0.396,0.385-1.178,0.49-1.27c0.094-0.095,0.188-0.975,0.285-1.655c0.201-0.688,0.298-0.976,0.094-1.361
		c-0.094-0.298-0.772-0.192-1.84-0.386c-1.066-0.196-1.754-0.688-2.242-1.268c-0.477-0.589-0.774-1.563-0.477-2.432
		c0.291-0.979,1.265-1.756,1.655-2.244c0.387-0.484,0.574-0.871,0.97-1.74c0.486-0.789,1.84-2.439,2.717-3.701
		c0.873-1.363,0.688-1.945,0.688-2.336c0-0.385-0.875-1.75-1.267-3.309c-0.482-1.555,0.392-4.279,0.778-6.13
		c0.393-1.841,1.454-5.835,1.454-6.218c0-0.396,0.196-0.871,0.196-0.973c0-0.088-1.459-0.689-1.655-1.068
		c-0.979-1.453-0.682-3.406-0.682-3.897c0-0.383,1.846-4.368,5.642-6.804h27.045v-3.99L60.504,0z M56.613,7.3
		c0-2.139,1.744-3.891,3.892-3.891c2.137,0,3.89,1.752,3.89,3.891c0,2.135-1.753,3.885-3.89,3.885
		C58.357,11.184,56.613,9.434,56.613,7.3z"/>
	<path fill="#222F64" d="M413.617,15.179c0.783-0.189,6.521-1.75,6.521-1.75V10.32h-19.461c0,0-21.115,49.025-22.277,51.646
		c-1.17-2.717-21.98-51.646-21.98-51.646h-13.914v69.35h17.416v-3.6l-10.217-1.748V29.87c2.232,5.248,21.684,50.484,21.684,50.484
		h6.035c0,0,19.646-45.139,21.891-50.293c0,5.451,0,43.584,0,44.549c-0.973,0.195-10.113,1.75-10.113,1.75v3.313h31.723v-3.109
		c0,0-6.328-1.651-7.104-1.854C413.721,73.546,413.617,16.147,413.617,15.179"/>
	<polyline fill="#DD9D26" points="135.705,79.668 135.705,77.917 142.605,76.263 142.605,14.11 135.705,12.453 135.705,10.703 
		159.144,10.703 159.144,12.453 152.235,14.11 152.235,75.876 173.348,75.876 178.893,60.115 183.176,60.996 180.449,79.668 
		135.705,79.668 	"/>
	<path fill="#DD9D26" d="M211.872,75.682c9.136,0,13.618-3.405,15.852-4.765l1.76,2.627c-4.283,3.203-9.631,7.197-19.654,7.197
		c-14.106,0-22.47-9.342-22.47-23.737c0-11.665,9.627-23.736,22.47-23.736c13.048,0,18.771,9.438,18.771,20.24h-31.423
		C195.718,66.441,201.947,75.682,211.872,75.682 M209.822,36.285c-6.222,0-10.11,5.063-11.77,13.91h21.6
		C219.164,43.877,215.951,36.285,209.822,36.285z"/>
	<path fill="#DD9D26" d="M246.792,61.577c-3.89-0.094-7.688,1.456-7.688,5.165c0,4.181,3.11,4.955,7.779,4.955h17.616
		c10.212,0,16.054,7.974,14.194,16.345c-2.136,10.116-12.248,16.437-25.385,16.437c-15.473,0-22.089-5.445-22.089-12.354
		c0-7.295,6.616-10.796,9.93-12.454c-3.012-1.259-7.207-3.983-7.207-10.407c0-6.224,5.16-10.605,10.316-10.605
		c-3.9-1.651-7.874-4.859-7.874-11.373c-0.096-8.956,7.481-14.109,18.384-14.109c0.682,0,1.562,0,2.323,0.094l20.143,0.578v2.047
		l-10.315,1.459c2.238,1.662,5.165,4.858,5.165,9.832c0,8.357-8.083,14.298-17.423,14.391L246.792,61.577 M238.232,90.96
		c0,6.22,8.18,10.009,14.875,10.009c11.389-0.094,18.101-5.156,18.101-13.13c0-4.959-3.015-7.875-9.729-7.875h-17.216
		C242.318,81.516,238.232,84.915,238.232,90.96z M244.847,47.377c0,6.809,3.601,10.984,9.142,10.984
		c5.636,0,9.236-4.188,9.236-10.984c0-6.906-3.212-11.38-9.236-11.38C248.736,36.087,244.847,40.472,244.847,47.377z"/>
	<path fill="#DD9D26" d="M296.989,37.263c-5.453,0-7.697,1.162-8.661,1.447l-0.972,8.956h-4.479l-0.965-9.921
		c3.023-1.662,9.349-4.678,17.799-4.678c10.308,0,14.113,5.643,14.113,12.744v30.541l6.707,1.654v1.657l-14.977,1.067l-0.586-5.348
		c-3.02,2.231-7.594,5.348-13.141,5.348c-8.947,0-13.612-5.06-13.612-12.065c0-6.612,5.254-13.034,17.024-13.422l9.623-0.292V46.98
		C304.959,42.903,304.477,37.263,296.989,37.263 M304.959,57.979l-6.22,0.484c-8.269,1.064-11.484,4.771-11.484,9.342
		c0,4.577,2.039,7.979,8.078,7.979c4.466,0,6.994-1.755,9.626-3.606V57.979z"/>
	<polyline fill="#DD9D26" points="323.738,10.319 323.738,12.739 329.18,14.3 329.275,75.393 322.371,77.244 322.371,79.668 
		338.322,79.668 338.322,10.319 323.738,10.319 	"/>
	<path fill="#222F64" d="M444.455,38.329c-5.744-0.481-7.873,0.388-9.15,0.688l-1.164,9.336h-6.127l-0.779-10.699
		c3.896-1.564,10.701-4.475,21.504-4.475c10.705,0,15.373,5.346,15.373,12.166v30.825l7.096,1.651v1.943l-18.674,1.07l-0.783-5.154
		c-3.211,2.139-7.873,5.154-14.498,5.154c-7.971,0-14.104-4.277-14.104-11.863c0-7.592,6.707-13.045,17.42-13.336l11.082-0.486
		v-7.776C451.748,43.102,450.971,38.809,444.455,38.329 M451.852,58.266l-7.783,0.779c-5.836,0.979-9.049,3.898-9.049,8.365
		c0,4.378,1.75,8.076,8.174,7.979c3.982,0,6.117-1.563,8.658-3.111V58.266z"/>
	<path fill="#222F64" d="M488.527,80.946c-10.229,0-11.773-3.813-11.773-12.653V38.33l-10.406-1.747v-2.235h10.508l6.996-18.777
		h5.064l0.486,18.777h12.453v2.235l-12.551,1.747v28.992c0,6.324,0.773,8.074,6.125,8.949c2.727,0.396,5.938,0.396,8.654,0.296
		l0.49,2.528C501.457,79.867,496.5,80.946,488.527,80.946"/>
	<path fill="#222F64" d="M526.752,36.675c-8.361,0-12.646,8.754-12.646,20.146c0,9.723,3.598,17.887,14.488,18.377
		c8.568,0.393,14.311-3.018,16.352-4.272l2.059,3.011c-2.35,1.758-9.152,6.908-20.928,6.908c-16.342,0-25.383-9.234-25.383-24.121
		c0-13.33,10.797-23.541,24.994-23.541c10.219,0,17.605,2.041,19.455,2.719l-1.07,12.158h-5.15l-1.064-7.094
		C536.676,39.977,532.779,36.675,526.752,36.675"/>
	<path fill="#222F64" d="M599.508,76.167V46.694c0-8.473-4.955-13.33-13.125-13.33c-9.438,0-16.252,5.738-18.674,7.486V10.412
		h-2.928l0,0h-17.119v2.434l7.486,1.563l0.088,5.938v56.021l-7.383,1.66v1.939h26.756v-1.939l-6.904-1.66V44.171
		c1.84-1.179,6.904-4.58,12.154-4.483c5.646,0,7.293,3.803,7.293,8.367v28.302l-6.514,1.563v2.047h26.063V77.92L599.508,76.167"/>
	<g enable-background="new    ">
		<path fill="#222F64" d="M0.41,119.302h19.935v5.235H6.171v5.573h12.492v5.234H6.171v10.136H0.41V119.302L0.41,119.302z"/>
		<path fill="#222F64" d="M25.207,119.302h5.759v26.178h-5.759V119.302z"/>
		<path fill="#222F64" d="M37.511,119.302h5.308l12.267,16.122v-16.122h5.686v26.178h-4.898l-12.681-16.642v16.642h-5.681
			L37.511,119.302L37.511,119.302z"/>
		<path fill="#222F64" d="M67.058,119.302h10.211c8.229,0,13.91,5.65,13.91,13.02v0.071c0,7.364-5.682,13.087-13.91,13.087H67.058
			V119.302z M72.817,124.502v15.78h4.449c4.715,0,7.891-3.179,7.891-7.813v-0.076c0-4.639-3.178-7.893-7.891-7.893L72.817,124.502
			L72.817,124.502z"/>
		<path fill="#222F64" d="M113.618,124.613h-7.967v-5.312h21.691v5.312h-7.965v20.869h-5.76L113.618,124.613L113.618,124.613z"/>
		<path fill="#222F64" d="M131.761,119.302h5.76v10.361h10.62v-10.361h5.758v26.178h-5.758v-10.508h-10.62v10.508h-5.76V119.302z"/>
		<path fill="#222F64" d="M160.183,119.302h19.746v5.123h-14.025v5.313h12.343v5.122h-12.343v5.497h14.211v5.123h-19.934v-26.178
			H160.183z"/>
		<path fill="#222F64" d="M196.464,119.302h11.967c3.328,0,5.908,0.939,7.628,2.66c1.459,1.453,2.246,3.512,2.246,5.984v0.066
			c0,4.229-2.286,6.883-5.613,8.117l6.396,9.348h-6.732l-5.61-8.377h-4.523v8.377h-5.759V119.302L196.464,119.302z M208.056,132.018
			c2.802,0,4.413-1.493,4.413-3.702v-0.069c0-2.47-1.72-3.74-4.525-3.74h-5.722v7.52h5.834V132.018z"/>
		<path fill="#222F64" d="M223.763,119.302h5.761v26.178h-5.761V119.302z"/>
		<path fill="#222F64" d="M234.912,132.467v-0.073c0-7.438,5.795-13.539,13.725-13.539c4.711,0,7.553,1.271,10.285,3.592
			l-3.627,4.375c-2.02-1.688-3.814-2.657-6.845-2.657c-4.187,0-7.518,3.702-7.518,8.153v0.072c0,4.789,3.293,8.306,7.93,8.306
			c2.093,0,3.962-0.523,5.423-1.571v-3.74h-5.797v-4.973h11.367v11.37c-2.694,2.28-6.396,4.15-11.182,4.15
			C240.52,145.929,234.912,140.209,234.912,132.467z"/>
		<path fill="#222F64" d="M265.39,119.302h5.76v10.361h10.621v-10.361h5.759v26.178h-5.759v-10.508H271.15v10.508h-5.76V119.302z"/>
		<path fill="#222F64" d="M299.91,124.613h-7.964v-5.312h21.687v5.312h-7.961v20.869h-5.762V124.613L299.91,124.613z"/>
		<path fill="#222F64" d="M329.268,119.302h5.76v20.943h13.051v5.236h-18.811V119.302L329.268,119.302z"/>
		<path fill="#222F64" d="M361.393,119.115h5.313l11.217,26.366H371.9l-2.393-5.872h-11.07l-2.395,5.872h-5.871L361.393,119.115z
			 M367.453,134.522l-3.479-8.486l-3.475,8.486H367.453z"/>
		<path fill="#222F64" d="M376.58,119.302h6.174l5.418,17.727l5.875-17.799h4.934l5.871,17.799l5.422-17.727h6.025l-8.938,26.368
			h-5.016l-5.906-17.132l-5.91,17.132h-5.014L376.58,119.302z"/>
		<path fill="#222F64" d="M427.18,135.16l-10.059-15.857h6.73l6.248,10.516l6.355-10.516h6.549l-10.061,15.748v10.433h-5.762
			v-10.321L427.18,135.16L427.18,135.16z"/>
		<path fill="#222F64" d="M446.594,119.302h19.748v5.123h-14.025v5.313h12.342v5.122h-12.342v5.497h14.209v5.123h-19.932V119.302
			L446.594,119.302z"/>
		<path fill="#222F64" d="M471.65,119.302h11.969c3.328,0,5.908,0.939,7.631,2.66c1.457,1.453,2.24,3.512,2.24,5.984v0.066
			c0,4.229-2.281,6.883-5.607,8.117l6.396,9.348h-6.73l-5.611-8.377h-4.523v8.377h-5.76L471.65,119.302L471.65,119.302z
			 M483.244,132.018c2.807,0,4.41-1.493,4.41-3.702v-0.069c0-2.47-1.717-3.74-4.521-3.74h-5.723v7.52h5.834V132.018L483.244,132.018
			z"/>
		<path fill="#222F64" d="M509.91,119.302h5.307l12.27,16.122v-16.122h5.688v26.178h-4.9l-12.68-16.642v16.642h-5.682v-26.178
			H509.91z"/>
		<path fill="#222F64" d="M538.299,132.467v-0.073c0-7.438,5.869-13.539,13.947-13.539c8.074,0,13.873,6.021,13.873,13.465v0.071
			c0,7.44-5.869,13.538-13.947,13.538S538.299,139.913,538.299,132.467z M560.1,132.467v-0.073c0-4.488-3.293-8.228-7.928-8.228
			c-4.637,0-7.855,3.667-7.855,8.153v0.072c0,4.486,3.295,8.227,7.932,8.227C556.881,140.618,560.1,136.955,560.1,132.467z"/>
		<path fill="#222F64" d="M567.73,119.302h6.172l5.426,17.727l5.871-17.799h4.936l5.873,17.799l5.422-17.727h6.021l-8.936,26.368
			h-5.014l-5.906-17.131l-5.914,17.132h-5.008L567.73,119.302z"/>
	</g>
</g>
</svg>
