<svg id="Layer_1" data-name="Layer 1" xmlns="http://www.w3.org/2000/svg" viewBox="0 0 478.85 82.46"><defs><style>.cls-1{fill:#dd9d26;}.cls-2{fill:#222f64;}</style></defs><title>LegalMatch</title><path class="cls-1" d="M14.09,16.66l10.57,27.1h1.85L14.09,11.91,13.4,13.7,1.66,43.76H3.51Z"/><polygon class="cls-1" points="28.36 44.44 28.36 43.06 0 43.06 0 44.44 5.29 50.13 23.06 50.13 28.36 44.44"/><path class="cls-1" d="M80.18,16.66l10.58,27.1h1.86L80.18,11.91l-.69,1.78L67.75,43.76H69.6C70.77,40.77,79,19.62,80.18,16.66Z"/><polygon class="cls-1" points="94.44 44.44 94.44 43.06 66.09 43.06 66.09 44.44 71.38 50.13 89.15 50.13 94.44 44.44"/><path class="cls-2" d="M18.22,68.46H77.29V65.12H18.22ZM47.73,0h0L13.61,6.7V9.83H35.88a11.8,11.8,0,0,1,4.46,5.4,5.06,5.06,0,0,1-.52,3.09c-.21.32-1.36.78-1.34.86a2.6,2.6,0,0,1,.18.78c0,.34.83,3.52,1.17,4.95s1,3.63.64,4.84-1.06,2.32-1,2.61a2.6,2.6,0,0,0,.57,1.8c.71,1.05,1.81,2.3,2.16,2.94a8.19,8.19,0,0,0,.8,1.36,5.87,5.87,0,0,1,1.3,1.79,2.16,2.16,0,0,1-.36,1.94,2.79,2.79,0,0,1-1.75,1c-.84.16-1.41.08-1.49.31s-.05.57.07,1.07.2,1.17.25,1.27.45.71.39,1-.17,1.29-.84,1.61-.68.37-.68.37a4.48,4.48,0,0,1,.83,1.13c.12.41.24.65,0,1s-1.44.95-1.69,1.5-.16.64.09,1.43a6.55,6.55,0,0,1-.43,4,3.73,3.73,0,0,1-2.36,1.88H24.9l-2,3.17H72.68l-2-3.17H59.08a3.73,3.73,0,0,1-2.36-1.88,6.53,6.53,0,0,1-.43-4c.25-.79.33-.88.08-1.43S55,51.35,54.7,51s-.16-.62,0-1a4.34,4.34,0,0,1,.83-1.13s0-.05-.68-.37S54,47.12,54,46.83s.33-.9.38-1,.13-.77.25-1.27.26-.76.07-1.07-.65-.16-1.48-.31a2.79,2.79,0,0,1-1.75-1,2.17,2.17,0,0,1-.37-1.94,5.88,5.88,0,0,1,1.31-1.79,8.13,8.13,0,0,0,.8-1.36c.35-.64,1.45-1.89,2.16-2.94a2.57,2.57,0,0,0,.57-1.8c0-.29-.66-1.41-1-2.61s.3-3.41.64-4.84,1.17-4.6,1.17-4.95a2.91,2.91,0,0,1,.18-.78c0-.09-1.12-.54-1.34-.86A5.06,5.06,0,0,1,55,15.23a11.82,11.82,0,0,1,4.45-5.4H80.84V6.7ZM44.67,5.79a3.06,3.06,0,1,1,3.06,3.06A3.06,3.06,0,0,1,44.67,5.79Z"/><path class="cls-1" d="M107,62.88V61.49l5.47-1.3v-49L107,9.84V8.46h18.52V9.84l-5.47,1.3V59.86h16.73l4.32-12.4,3.43.65-2.21,14.77Z"/><path class="cls-1" d="M167.23,59.69a20.68,20.68,0,0,0,12.49-3.75l1.39,2c-3.35,2.53-7.59,5.71-15.5,5.71-11.1,0-17.71-7.35-17.71-18.77,0-9.22,7.59-18.77,17.71-18.77,10.28,0,14.85,7.43,14.85,16h-24.8C154.42,52.43,159.4,59.69,167.23,59.69ZM165.6,28.6c-4.9,0-8,4-9.3,11h17.05C172.94,34.65,170.42,28.6,165.6,28.6Z"/><path class="cls-1" d="M194.76,48.6c-3.1-.09-6,1.14-6,4.07,0,3.27,2.45,3.92,6.12,3.92h13.87c8.07,0,12.65,6.29,11.18,12.89-1.71,8-9.71,13-20.08,13-12.23,0-17.45-4.32-17.45-9.79,0-5.79,5.22-8.49,7.83-9.79a8.5,8.5,0,0,1-5.71-8.24,8.39,8.39,0,0,1,8.15-8.4c-3.1-1.31-6.2-3.84-6.2-9-.08-7.1,5.88-11.1,14.52-11.1a15,15,0,0,1,1.88.08l15.91.49v1.63l-8.16,1.14a9.51,9.51,0,0,1,4.08,7.75c0,6.61-6.36,11.26-13.71,11.35ZM188,71.77c0,4.89,6.45,7.92,11.75,7.92,9-.08,14.28-4.08,14.28-10.36,0-3.92-2.37-6.2-7.67-6.2H192.72C191.25,64.35,188,67,188,71.77Zm5.22-34.35c0,5.38,2.85,8.65,7.25,8.65s7.26-3.27,7.26-8.65-2.53-9-7.26-9C196.31,28.45,193.21,32,193.21,37.42Z"/><path class="cls-1" d="M234.38,29.42a17.2,17.2,0,0,0-6.86,1.14l-.74,7.1h-3.51l-.73-7.83a29,29,0,0,1,14-3.68c8.16,0,11.17,4.49,11.17,10V60.27l5.31,1.3v1.31l-11.83.82-.49-4.24c-2.37,1.79-6,4.24-10.37,4.24-7.1,0-10.77-4-10.77-9.55,0-5.22,4.16-10.28,13.46-10.6l7.59-.25V37C240.66,33.83,240.33,29.42,234.38,29.42Zm6.28,16.32-4.89.41c-6.53.81-9.06,3.75-9.06,7.34s1.63,6.29,6.37,6.29c3.51,0,5.55-1.39,7.59-2.86Z"/><polygon class="cls-1" points="255.48 8.1 255.48 10.06 259.82 11.25 259.88 59.53 254.42 61 254.42 62.88 267.02 62.88 267.02 8.1 255.48 8.1"/><path class="cls-2" d="M326.48,12l5.15-1.39V8.1H316.25L298.68,48.91,281.35,8.1h-11V62.81h13.78V60L276,58.59V23.47l17.16,39.86h4.75L315.25,23.6c0,4.28,0,34.43,0,35.2l-8,1.37v2.61H332.2V60.28l-5.64-1.45C326.56,58.08,326.48,12.72,326.48,12Z"/><path class="cls-2" d="M350.81,30.28a16.41,16.41,0,0,0-7.2.57l-1,7.36h-4.86l-.6-8.42a41.47,41.47,0,0,1,17-3.51c8.41,0,12.13,4.25,12.13,9.56V60.19L372,61.5v1.55l-14.74.82-.61-4.09c-2.51,1.71-6.24,4.09-11.44,4.09-6.33,0-11.1-3.35-11.1-9.4s5.29-10.3,13.78-10.54l8.75-.41V37.39C356.53,34,355.93,30.6,350.81,30.28ZM356.62,46l-6.16.65c-4.59.74-7.11,3.11-7.11,6.62s1.39,6.37,6.41,6.29c3.12,0,4.86-1.23,6.85-2.45Z"/><path class="cls-2" d="M385.57,63.87c-8.06,0-9.27-3-9.27-10V30.28l-8.23-1.39v-1.8h8.32l5.55-14.79h4l.35,14.79h9.8v1.8l-9.88,1.39V53.16c0,5,.61,6.37,4.86,7a38.82,38.82,0,0,0,6.85.24l.35,2A47.06,47.06,0,0,1,385.57,63.87Z"/><path class="cls-2" d="M415.76,29c-6.59,0-10,6.95-10,15.86,0,7.68,2.86,14.14,11.44,14.55A22.28,22.28,0,0,0,430.15,56l1.65,2.37a25.91,25.91,0,0,1-16.47,5.48c-12.92,0-20-7.27-20-19,0-10.54,8.49-18.55,19.76-18.55a52.21,52.21,0,0,1,15.34,2.12L429.54,38h-4.08l-.87-5.64A14.32,14.32,0,0,0,415.76,29Z"/><path class="cls-2" d="M473.22,60.11V36.81c0-6.7-3.9-10.54-10.4-10.54-7.45,0-12.83,4.5-14.74,5.88v-24H432.27v2l5.88,1.19,0,4.66V60.19l-5.8,1.3v1.55h21.15V61.5l-5.46-1.3V34.77c1.47-.9,5.46-3.6,9.62-3.51,4.42,0,5.72,3,5.72,6.62V60.19l-5.12,1.22v1.63h20.54V61.42Z"/></svg>